<?xml version="1.0" encoding="UTF-8"?>
<svg id="Layer_2" xmlns="http://www.w3.org/2000/svg" viewBox="0 0 256.21 154.39">
  <defs>
    <style>
      .cls-1 {
        fill: #c41e56;
      }
    </style>
  </defs>
  <g id="Layer_1-2" data-name="Layer_1">
    <g>
      <path class="cls-1" d="M44.65,14.4s.06-.03.09-.03c0,0,0-.01,0-.02-.07-.01-.14-.03-.21-.04-.31-.06-.62-.12-.92-.17-.13-.02-.27-.04-.4-.07-.07-.01-.14-.04-.21-.06-.01,0-.03-.01-.04-.01-.4-.06-.81-.13-1.21-.19-.2-.03-.39-.05-.59-.08-.03,0-.06,0-.07-.02-.08-.13-.27-.17-.29-.34-.03-.18-.02-.35.08-.5.13-.19.33-.23.53-.26.62-.11,1.24-.2,1.86-.33.63-.12,1.25-.27,1.87-.41.83-.2,1.64-.47,2.42-.81.79-.35,1.53-.79,2.18-1.35.28-.24.53-.51.77-.8.26-.32.51-.65.73-1,.23-.37.42-.77.6-1.16.32-.7.56-1.43.75-2.18.13-.5.26-1,.36-1.5.13-.61.23-1.22.34-1.84.04-.23.07-.46.11-.69.04-.27.18-.45.46-.51.22-.05.55.11.6.33.06.25.1.5.14.76.11.6.21,1.21.33,1.81.1.49.2.98.33,1.46.19.66.39,1.32.63,1.96.16.43.38.83.6,1.24.16.31.34.61.54.9.45.65,1.02,1.19,1.65,1.65.81.59,1.72.99,2.67,1.33,1,.35,2.04.6,3.08.8.71.14,1.42.25,2.13.37.23.04.43.11.52.36.11.28-.03.63-.33.7-.3.08-.61.12-.92.17-1.03.17-2.06.37-3.07.63-.94.24-1.87.54-2.75.97-.86.42-1.65.94-2.32,1.62-.63.64-1.09,1.39-1.48,2.18-.3.61-.53,1.24-.73,1.89-.21.7-.37,1.41-.52,2.12-.17.83-.3,1.66-.45,2.49-.01.06-.03.12-.04.19-.05.22-.19.35-.41.39-.22.04-.41-.01-.55-.19-.03-.03-.05-.08-.05-.12-.14-.75-.26-1.51-.41-2.26-.11-.57-.25-1.13-.38-1.69-.1-.39-.19-.79-.33-1.17-.18-.51-.32-1.03-.59-1.51-.07-.12-.11-.26-.17-.39-.02-.04-.07-.08-.1-.12-.02-.02-.03-.04-.04-.06-.19-.41-.45-.77-.72-1.12-.07-.09-.13-.2-.21-.29-.07-.08-.15-.15-.22-.23-.02-.02-.04-.04-.07-.06-.17-.18-.33-.37-.53-.53-.26-.21-.55-.4-.83-.59-.48-.33-1.01-.58-1.54-.8-.36-.15-.74-.24-1.1-.39-.32-.13-.66-.2-.99-.3-.18-.05-.37-.07-.58-.1"/>
      <path class="cls-1" d="M64.33,30.13h-21.28c-.76,0-1.34.59-1.34,1.38s.58,1.38,1.34,1.38h5.78c.08,0,.13,0,.16.01,0,.04.01.09.01.16v70.46c0,5.83-1.47,24.84-20.33,24.84-5.87,0-10.68-2.07-13.9-5.98-3.41-4.14-4.77-10.13-3.62-16.03.39-2.04,0-3.88-1.08-5.19-.96-1.16-2.4-1.83-3.95-1.83-2.6,0-5.42,1.93-5.87,6.22-.61,5.67,1.32,11.31,5.43,15.89,5.44,6.05,13.82,9.53,22.99,9.53,18.77,0,29.98-13.81,29.98-27.16V33.06c0-.1.02-.15,0-.15.01,0,.06-.02.17-.02h5.5c.78,0,1.39-.62,1.39-1.41,0-.35-.13-.68-.37-.93-.26-.26-.62-.41-1.02-.41"/>
      <path class="cls-1" d="M124.17,103.52c-1.33,0-2.56.6-3.32,1.62-.85,1.14-1.03,2.7-.52,4.4,1.03,3.33.15,7.37-2.37,10.78-3.5,4.75-9.23,7.47-15.74,7.47-12.03,0-16.48-5-20.06-13.63-1.1-9.47,13.53-13.25,26.44-16.59.96-.25,1.91-.49,2.86-.74,7.88-2.17,17.08-7.96,17.08-17.13,0-10.6-9.22-17.72-22.94-17.72-9.58,0-18.27,3.7-24.46,10.41-5.92,6.41-9.18,15.02-9.18,24.22,0,21.25,11.03,33.51,30.26,33.65h0c13.67,0,26.6-10.32,26.6-21.24,0-3.77-2.42-5.49-4.66-5.49M104.35,64.59c12.61,0,15.25,7.76,15.25,14.27,0,8.42-3.36,13.71-9.99,15.71-2.11.64-4.35,1.25-6.52,1.84-8.89,2.41-18.04,4.89-21.69,10.76-.23-4.27-.3-8.72-.19-13.06.57-13.47,5.04-29.52,23.15-29.52"/>
      <path class="cls-1" d="M203.41,121.87c-.69,0-1.23.54-1.23,1.23,0,2.16-1.29,3.56-3.28,3.56-2.81,0-3.56-2.79-3.56-4.26v-43.4c0-8.06-6.87-16.74-21.95-16.74-8.87,0-16.97,5.31-22.16,14.38v-10.36h1.3c.6,0,1.23-.5,1.23-1.23s-.64-1.23-1.23-1.23h-16.49c-.6,0-1.23.5-1.23,1.23s.64,1.23,1.23,1.23h4.19c1.35.12,2.04.98,2.04,2.57v57.64c0,.54-.06.6-.6.6h-5.5c-.6,0-1.23.5-1.23,1.23s.64,1.23,1.23,1.23h20.86c.6,0,1.23-.5,1.23-1.23s-.64-1.23-1.23-1.23h-5.21c-.54,0-.6-.06-.6-.6v-44.78c4.11-9.42,11.59-15.81,19.57-16.69.71-.08,1.41-.12,2.08-.12,9.28,0,13.5,7.75,13.5,14.96v39.03c0,6.93,3.66,11.24,9.55,11.24,7.19,0,8.7-3.81,8.7-7.01,0-.69-.54-1.23-1.23-1.23"/>
      <path class="cls-1" d="M228.91,121.87c-.69,0-1.23.54-1.23,1.23,0,2.16-1.29,3.56-3.28,3.56-2.81,0-3.56-2.79-3.56-4.26v-56.12h1.3c.6,0,1.23-.5,1.23-1.23s-.64-1.23-1.23-1.23h-16.49c-.6,0-1.23.5-1.23,1.23s.64,1.23,1.23,1.23h4.16c1.8.31,2.07,1.92,2.07,2.85v49.74c0,6.93,3.66,11.24,9.55,11.24,7.19,0,8.7-3.81,8.7-7.01,0-.69-.54-1.23-1.23-1.23"/>
      <path class="cls-1" d="M216.23,43.31c3.25,0,5.6-2.36,5.6-5.6s-2.36-5.6-5.6-5.6-5.6,2.36-5.6,5.6,2.36,5.6,5.6,5.6"/>
      <path class="cls-1" d="M254.84,121.87c-.69,0-1.23.54-1.23,1.23,0,2.16-1.29,3.56-3.28,3.56-2.81,0-3.56-2.79-3.56-4.26v-56.12h1.3c.6,0,1.23-.5,1.23-1.23s-.64-1.23-1.23-1.23h-16.49c-.6,0-1.23.5-1.23,1.23s.64,1.23,1.23,1.23h4.16c1.8.31,2.07,1.92,2.07,2.85v49.74c0,6.93,3.66,11.24,9.55,11.24,7.19,0,8.7-3.81,8.7-7.01,0-.69-.54-1.23-1.23-1.23"/>
      <path class="cls-1" d="M242.16,43.31c3.25,0,5.6-2.36,5.6-5.6s-2.36-5.6-5.6-5.6-5.6,2.36-5.6,5.6,2.36,5.6,5.6,5.6"/>
      <path class="cls-1" d="M14.01,137.97l.6,3.86c-.39-.9-.92-1.63-1.56-2.25-.94-.9-2.19-1.36-3.73-1.36h-.83v13.8c0,.92.41,1.54.99,1.79.58.21.87.25,1.17.25h-6.44c.3,0,.57-.05,1.15-.25.57-.25.99-.87.99-1.79v-13.8h-.97c-1.5,0-2.74.46-3.73,1.4-.62.55-1.22,1.43-1.47,1.89l-.18.37.67-3.91h13.34Z"/>
      <path class="cls-1" d="M23.16,152.11c0,1.89,1.79,1.96,2.07,1.96h-6.26c.28,0,.55-.05,1.1-.25.55-.21.94-.85.94-1.7v-12.19c0-.9-.39-1.5-.94-1.7-.55-.21-.83-.25-1.1-.25h6.26c-.28,0-.58.05-1.13.25-.55.21-.94.8-.94,1.7v12.19Z"/>
      <path class="cls-1" d="M48.56,152.02c0,.9.39,1.5.94,1.75.55.25.87.3,1.13.3h-6.33c.25,0,.58-.05,1.1-.3.53-.25.92-.85.92-1.75v-10.12c0-.9-.09-1.36-.28-1.38-.14,0-.32.3-.58.87l-.12.23-5.41,12.68-6.79-13.02c-.62-1.13-.99-.87-.99.39l-.02,9.25c0,1.17.46,2.09.92,2.48.25.21.53.35.83.46.64.21.81.21.97.21h-5.52c.16,0,.37,0,.94-.21.76-.32,1.63-1.13,1.63-2.99v-9.43c0-2.88-1.84-3.47-2.21-3.47l-.09-.02h4.32l5.84,11.2c.85,1.56,1.27,1.66,1.96.09l4.88-11.27h3.86c-.11,0-1.93.12-1.93,2.14v11.92Z"/>
      <path class="cls-1" d="M68.18,150.3l.21-.35-.99,4.12h-12.7c.25,0,.58-.07,1.1-.28.53-.21.92-.81.92-1.63v-12.35c0-.83-.39-1.4-.94-1.59-.53-.21-.8-.25-1.08-.25h11.89l.8,3.68c-.14-.25-.44-.62-.87-1.1-.44-.48-.9-.92-1.43-1.27-.64-.44-1.27-.71-1.86-.85-.6-.16-1.56-.23-2.92-.23h-1.43v7.38h1.29c2.21-.05,2.92-1.43,3.13-2l.07-.23v4.76c-.02-.12-.05-.25-.34-.78-.35-.67-1.17-1.49-2.85-1.49h-1.29v6.05c0,1.84,1.06,1.98,1.7,1.98h1.45c1.36,0,2.67-.46,3.93-1.4,1.1-.8,1.96-1.73,2.21-2.16"/>
      <path class="cls-1" d="M79.66,153.86c1.4,0,2.69-.41,3.86-1.22,1.2-.81,1.98-1.73,2.32-2.71l-.87,4.14h-12.33c.28,0,.55-.05,1.1-.25.55-.25.94-.87.94-1.79v-12.1c0-.9-.37-1.5-.9-1.7-.53-.21-.78-.25-1.06-.25h6.07c-.28,0-.53.05-1.08.25-.53.21-.9.8-.9,1.7v11.89c0,1.54.64,2.05,1.84,2.05h.99Z"/>
      <path class="cls-1" d="M103.42,150.3l.21-.35-.99,4.12h-12.7c.25,0,.58-.07,1.1-.28.53-.21.92-.81.92-1.63v-12.35c0-.83-.39-1.4-.94-1.59-.53-.21-.8-.25-1.08-.25h11.89l.8,3.68c-.14-.25-.44-.62-.87-1.1-.44-.48-.9-.92-1.43-1.27-.64-.44-1.27-.71-1.86-.85-.6-.16-1.56-.23-2.92-.23h-1.43v7.38h1.29c2.21-.05,2.92-1.43,3.13-2l.07-.23v4.76c-.02-.12-.05-.25-.34-.78-.35-.67-1.17-1.49-2.85-1.49h-1.29v6.05c0,1.84,1.06,1.98,1.7,1.98h1.45c1.36,0,2.67-.46,3.93-1.4,1.1-.8,1.96-1.73,2.21-2.16"/>
      <path class="cls-1" d="M119.36,142.11c-.28-.71-.9-1.52-1.84-2.39-.81-.78-1.73-1.29-2.81-1.52-1.08-.23-2-.12-2.81.35-.9.55-1.31,1.68-1.13,2.81.25,1.59,1.59,2.62,3.98,3.13,4.39.92,5.98,2.58,5.64,5.59-.11,1.5-.71,2.58-1.77,3.29-1.06.69-2.32,1.04-3.77,1.04-2.51-.02-4.51-.62-6.03-1.75l-.05-4.37c.48,1.33,1.24,2.51,2.28,3.5,1.06.99,2.21,1.63,3.47,1.93,1.24.25,2.32.21,3.24-.18.94-.39,1.43-1.15,1.47-2.25.05-.97-.3-1.82-1.06-2.55-.76-.74-2.16-1.33-4.23-1.82-1.82-.44-3.06-1.06-3.73-1.86-.67-.83-.99-1.84-.92-3.06.05-1.29.58-2.32,1.61-3.08,1.04-.78,2.35-1.17,3.93-1.15,1.63,0,3.27.48,3.98.85l.51.28.02,3.24Z"/>
      <path class="cls-1" d="M136.25,142.11c-.28-.71-.9-1.52-1.84-2.39-.8-.78-1.72-1.29-2.81-1.52-1.08-.23-2-.12-2.81.35-.9.55-1.31,1.68-1.13,2.81.25,1.59,1.59,2.62,3.98,3.13,4.39.92,5.98,2.58,5.64,5.59-.12,1.5-.71,2.58-1.77,3.29-1.06.69-2.32,1.04-3.77,1.04-2.51-.02-4.51-.62-6.03-1.75l-.05-4.37c.48,1.33,1.24,2.51,2.28,3.5,1.06.99,2.21,1.63,3.47,1.93,1.24.25,2.32.21,3.24-.18.94-.39,1.43-1.15,1.47-2.25.05-.97-.3-1.82-1.06-2.55-.76-.74-2.16-1.33-4.23-1.82-1.82-.44-3.06-1.06-3.73-1.86-.67-.83-.99-1.84-.92-3.06.05-1.29.57-2.32,1.61-3.08,1.04-.78,2.35-1.17,3.93-1.15,1.63,0,3.27.48,3.98.85l.51.28.02,3.24Z"/>
      <path class="cls-1" d="M164.57,149.88c0,2-.92,2.94-2.05,3.57-.35.21-.78.34-1.27.44-.99.16-1.61.21-2.55.21l-7.41-.02c.3,0,.64-.05,1.22-.25.57-.21,1.01-.85,1.01-1.7v-12.26c-.02-.71-.39-1.27-.78-1.47-.18-.12-.41-.21-.67-.28-.48-.16-.62-.14-.78-.14l6.95-.05c3.43,0,5.2,1.15,5.2,3.89,0,2.21-1.29,3.7-3.34,3.89,1.77,0,4.46.67,4.46,4.19M155.66,145.67c1.15,0,1.98-.02,2.51-.09,1.2-.09,2.02-.51,2.51-1.24.48-.76.69-1.63.67-2.62-.02-1.54-.55-2.55-1.63-3.01-1.04-.48-2.21-.64-4.05-.58v7.55ZM158.13,145.95c-.67-.05-1.47-.05-2.46-.02v6.07c0,.71.28,1.22.55,1.47.16.12.37.23.62.3.53.11.76.11,1.33.11,2.16.05,4.12-.85,4.16-3.84.02-2.78-1.52-4.03-4.21-4.09"/>
      <path class="cls-1" d="M182.67,150.3l.21-.35-.99,4.12h-12.7c.25,0,.58-.07,1.1-.28.53-.21.92-.81.92-1.63v-12.35c0-.83-.39-1.4-.94-1.59-.53-.21-.8-.25-1.08-.25h11.89l.8,3.68c-.14-.25-.44-.62-.87-1.1-.44-.48-.9-.92-1.43-1.27-.64-.44-1.27-.71-1.86-.85-.6-.16-1.56-.23-2.92-.23h-1.43v7.38h1.29c2.21-.05,2.92-1.43,3.13-2l.07-.23v4.76c-.02-.12-.05-.25-.35-.78-.35-.67-1.17-1.49-2.85-1.49h-1.29v6.05c0,1.84,1.06,1.98,1.7,1.98h1.45c1.36,0,2.67-.46,3.93-1.4,1.1-.8,1.96-1.73,2.21-2.16"/>
      <path class="cls-1" d="M199.58,152.07c.21.53.51.97.85,1.31.71.64,1.06.67,1.45.69h-6.17c.12,0,.23-.02.69-.18.25-.09.41-.21.53-.35.21-.3.53-.83.16-1.56l-1.63-4.49h-5.31l-1.49,3.93c-.62,1.4-.09,2.53,1.56,2.65h-4.56c1.08-.07,2.05-1.04,2.69-2.71l5.47-14.08.07.21,5.68,14.58ZM191.89,142.91l-1.63,4.35,5.11-.02-1.7-4.78c-.32-.85-.6-1.29-.81-1.29s-.53.58-.97,1.75M201.88,154.07h.09-.09Z"/>
      <path class="cls-1" d="M217.68,140.73c0-1.13-.41-1.98-.99-2.32-.55-.35-.87-.41-1.22-.44h4.53c-.28.02-.58.12-1.13.46-.55.35-.94,1.2-.94,2.39v6.51c0,4.6-1.79,6.9-5.41,6.9-2.32,0-3.75-.81-4.62-2.07-.58-.92-.87-1.75-1.08-2.97-.18-1.22-.21-2.09-.21-3.38v-5.52c0-2.23-1.7-2.32-2-2.32h6.28c-.32,0-2.05.09-2.05,2.32v6.83c0,1.96.35,3.52,1.06,4.65.71,1.13,1.84,1.68,3.38,1.66,2.97-.07,4.39-2,4.39-6.23v-6.46Z"/>
      <path class="cls-1" d="M237.6,137.97l.6,3.86c-.39-.9-.92-1.63-1.56-2.25-.94-.9-2.19-1.36-3.73-1.36h-.83v13.8c0,.92.41,1.54.99,1.79.57.21.87.25,1.17.25h-6.44c.3,0,.57-.05,1.15-.25.57-.25.99-.87.99-1.79v-13.8h-.97c-1.5,0-2.74.46-3.73,1.4-.62.55-1.22,1.43-1.47,1.89l-.18.37.67-3.91h13.34Z"/>
      <path class="cls-1" d="M256.21,137.97c-1.17.25-2.16,1.1-2.94,2.51l-2.71,4.9c-.39.74-.6,1.59-.6,2.53v4.28c0,.48.14.9.44,1.2.58.62,1.06.67,1.5.69h-6.05c.21,0,.44-.02.69-.09.53-.16,1.29-.78,1.29-1.7l.02-4.12c0-.81-.18-1.52-.55-2.12l-3.63-6.21c-.81-1.29-1.96-1.86-2.62-1.86l6.05.02c-1.2.07-1.63,1.01-.99,2.12l3.06,5.36c.37.62.74.6,1.13-.12l2.48-4.46c.9-1.5.58-2.67-1.01-2.92h4.46Z"/>
    </g>
  </g>
</svg>