<svg width="31" height="31" viewBox="0 0 31 31" fill="none" xmlns="http://www.w3.org/2000/svg">
<g id="mdi:account-outline">
<path id="Vector" d="M15.5003 5.1665C16.8706 5.1665 18.1848 5.71085 19.1537 6.67979C20.1226 7.64872 20.667 8.96289 20.667 10.3332C20.667 11.7035 20.1226 13.0176 19.1537 13.9866C18.1848 14.9555 16.8706 15.4998 15.5003 15.4998C14.13 15.4998 12.8159 14.9555 11.8469 13.9866C10.878 13.0176 10.3337 11.7035 10.3337 10.3332C10.3337 8.96289 10.878 7.64872 11.8469 6.67979C12.8159 5.71085 14.13 5.1665 15.5003 5.1665ZM15.5003 7.74984C14.8152 7.74984 14.1581 8.02201 13.6736 8.50648C13.1892 8.99095 12.917 9.64803 12.917 10.3332C12.917 11.0183 13.1892 11.6754 13.6736 12.1599C14.1581 12.6443 14.8152 12.9165 15.5003 12.9165C16.1855 12.9165 16.8425 12.6443 17.327 12.1599C17.8115 11.6754 18.0837 11.0183 18.0837 10.3332C18.0837 9.64803 17.8115 8.99095 17.327 8.50648C16.8425 8.02201 16.1855 7.74984 15.5003 7.74984ZM15.5003 16.7915C18.9491 16.7915 25.8337 18.5094 25.8337 21.9582V25.8332H5.16699V21.9582C5.16699 18.5094 12.0516 16.7915 15.5003 16.7915ZM15.5003 19.2457C11.6641 19.2457 7.62116 21.1315 7.62116 21.9582V23.379H23.3795V21.9582C23.3795 21.1315 19.3366 19.2457 15.5003 19.2457Z" fill="black"/>
</g>
</svg>
