<svg width="12" height="13" viewBox="0 0 12 13" fill="currentColor" xmlns="http://www.w3.org/2000/svg">
<path id="Vector" fill-rule="evenodd" clip-rule="evenodd" d="M7.47658 9.63224L5.54604 12.878L3.57048 9.6336L0.0586666 9.58585L1.75727 6.48198L0 3.30716L3.59094 3.29624L5.57469 0L7.49568 3.30307L11.043 3.31125L9.30889 6.44923L11.0948 9.5572L7.47658 9.63224ZM3.21302 8.32247L2.70549 7.4452L2.09153 8.37568L3.21302 8.32247ZM2.12155 4.51869L2.70685 5.47373L3.2826 4.47503L2.12155 4.51869ZM5.4942 10.5395L6.14908 9.24203H4.89389L5.4942 10.5395ZM5.57606 2.50902L4.93209 3.61959H6.21729L5.57606 2.50902ZM6.45742 4.97847L4.6142 5.00713L3.79559 6.40421L4.57054 7.75627L6.40284 7.77128L7.26101 6.32917L6.45742 4.97847ZM7.74399 4.45184L8.34839 5.51057L9.00191 4.51324L7.74399 4.45184ZM8.44253 7.31695L7.8968 8.25016L9.04284 8.24061L8.44253 7.31695Z" fill="currentColor"/>
</svg>
